inDegrees=no
num_controls=7
num_derivatives=13
num_iterations=41
num_multipliers=7
num_parameters=0
num_slacks=7
num_states=26
objective=0.426969
objective_accelerations=0.058252
objective_balance=0.001119
objective_effort=0.015348
objective_height=0.346289
objective_ligament=0.005961
solver_duration=628.552923
status=Solve_Succeeded
success=true
DataType=double
version=3
OpenSimVersion=4.5
endheader
time	/jointset/ground_pelvis/pelvis_tilt/value	/jointset/ground_pelvis/pelvis_tx/value	/jointset/ground_pelvis/pelvis_ty/value	/jointset/hip_l/hip_flexion_l/value	/jointset/hip_l/hip_adduction_l/value	/jointset/hip_l/hip_rotation_l/value	/jointset/back/lumbar_extension/value	/jointset/patellofemoral_l/patellar_flexion_l/value	/jointset/knee_l/knee_flexion_l/value	/jointset/knee_l/knee_adduction_l/value	/jointset/knee_l/knee_rotation_l/value	/jointset/ankle_l/ankle_angle_l/value	/jointset/subtalar_l/subtalar_angle_l/value	/jointset/ground_pelvis/pelvis_tilt/speed	/jointset/ground_pelvis/pelvis_tx/speed	/jointset/ground_pelvis/pelvis_ty/speed	/jointset/hip_l/hip_flexion_l/speed	/jointset/hip_l/hip_adduction_l/speed	/jointset/hip_l/hip_rotation_l/speed	/jointset/back/lumbar_extension/speed	/jointset/patellofemoral_l/patellar_flexion_l/speed	/jointset/knee_l/knee_flexion_l/speed	/jointset/knee_l/knee_adduction_l/speed	/jointset/knee_l/knee_rotation_l/speed	/jointset/ankle_l/ankle_angle_l/speed	/jointset/subtalar_l/subtalar_angle_l/speed	/forceset/tau_hip_flexion_l	/forceset/tau_hip_adduction_l	/forceset/tau_hip_rotation_l	/forceset/tau_knee_flexion_l	/forceset/tau_ankle_angle_l	/forceset/tau_subtalar_angle_l	/forceset/tau_lumbar_extension	lambda_cid13_p0	lambda_cid13_p1	lambda_cid13_p2	lambda_cid13_p3	lambda_cid13_p4	lambda_cid13_p5	lambda_cid14_p0	/jointset/ground_pelvis/pelvis_tilt/accel	/jointset/ground_pelvis/pelvis_tx/accel	/jointset/ground_pelvis/pelvis_ty/accel	/jointset/hip_l/hip_flexion_l/accel	/jointset/hip_l/hip_adduction_l/accel	/jointset/hip_l/hip_rotation_l/accel	/jointset/back/lumbar_extension/accel	/jointset/patellofemoral_l/patellar_flexion_l/accel	/jointset/knee_l/knee_flexion_l/accel	/jointset/knee_l/knee_adduction_l/accel	/jointset/knee_l/knee_rotation_l/accel	/jointset/ankle_l/ankle_angle_l/accel	/jointset/subtalar_l/subtalar_angle_l/accel	gamma_cid13_p0	gamma_cid13_p1	gamma_cid13_p2	gamma_cid13_p3	gamma_cid13_p4	gamma_cid13_p5	gamma_cid14_p0
1	-0.4507471759579467	-0.001271400329782079	0.5961136073184812	1.693660314638289	-0.3470819739390009	0.1323223279664006	-0.4362618590484663	1.503480254385936	1.503480254385926	0.06150096545163437	-0.1744853267590872	0.4349928290715335	0.2485188217323996	-0.1461808227666066	0.002711578567510882	0.03501531430866588	0.02247244706136642	-0.000552412635839667	-0.05681426839503997	-0.00138223407020082	-0.158541799990323	-0.1585417999903252	-0.00645489298910764	5.504623234085475e-05	-0.04847661038276192	-0.03005555737753782	-0.2358323848247074	0.08537167249762212	-0.01271500166493555	-0.2933679231156111	-0.01324782837035405	-0.01639087051304891	0.2065329237902982	-40.35968767960755	25.14891650661933	-16.81358638674664	2.901132749678683	-542.2409591380625	-28.36061898493016	-0.02378572962261575	1.406760884941161	0.2638589639314596	2.004618186930136	-6.601674595411439	-0.2300502389227947	-1.542461936449257	-0.03627426204474632	-5.587879910384435	-5.587879910384532	-0.885360420293926	-0.02939712389013886	-0.8764716335537809	-0.8916856884281072	-2.328744978064583e-09	-1.27013283528624e-07	-6.703882665817316e-08	-9.687172691889082e-09	-6.138950125517841e-09	-1.664506031485772e-07	6.458477266348595e-09
1.01	-0.4521392989016563	-0.001231063437003759	0.5965637740509461	1.693555978163011	-0.3470984570631583	0.1316791776628921	-0.4362764114357824	1.501615851265053	1.50161585126506	0.06139089986342738	-0.174484813694051	0.4344642401380114	0.2481745873307747	-0.1322287162024404	0.005364745890121035	0.05500881080449004	-0.04333656076702185	-0.002739584921444939	-0.07180575773834387	-0.001511335902303827	-0.2143317804697517	-0.2143317804697591	-0.01555622012469321	4.761949635425152e-05	-0.05724960664379996	-0.03878291894246513	-0.2363882660969253	0.08533053724911162	-0.01273967171141401	-0.2922568525887535	-0.01379325383581512	-0.01631474674251606	0.2068608073003257	-40.48537186108506	25.07064364527604	-16.72432777074574	2.825682580145779	-542.0844354812917	-28.29712168198975	-0.02380271729470937	1.391693319747563	0.2673838971212855	1.995330185412118	-6.570036410650231	-0.2123407175655031	-1.475992320983509	0.001307980456217105	-5.573502171506762	-5.573502171507488	-0.9222294322964711	0.01356319763043221	-0.8789860978114303	-0.8619632011398582	-2.341188877060624e-09	-1.661347444235415e-07	-9.328045704849297e-08	-1.793936376820331e-08	-9.904559805601148e-09	-2.125544557547055e-07	8.045203442088237e-09
1.02	-0.453391449224207	-0.001163927214860355	0.5972135987092695	1.692793647102625	-0.347136669909009	0.1308864124884059	-0.4362917476165428	1.49919375932842	1.499193759328445	0.06118987888944403	-0.1744843791671569	0.4338476667467926	0.2477433389513775	-0.1181862985345424	0.008071444440527634	0.07494689948045084	-0.1091264699593193	-0.0048983569744932	-0.0867372425901492	-0.00153899276442763	-0.2700795631405677	-0.27007956314058	-0.02464597014450413	3.933860370105151e-05	-0.06607350192214351	-0.04745835293198551	-0.2369441473691581	0.08528940200059142	-0.01276434175789803	-0.291145782061897	-0.01433867930127549	-0.01623862297199861	0.2071886908103376	-40.61329629264506	24.98943174425695	-16.63079517833302	2.74124306008899	-542.0389428878866	-28.23968946184167	-0.02382212670214822	1.424823105687543	0.2745652094907289	1.993536622957459	-6.597854868193259	-0.2243701924113955	-1.530461038149544	-0.01598526804853288	-5.579440348661881	-5.579440348661909	-0.8830449971389966	-0.02956795522348065	-0.8866514370149225	-0.8813001733467486	-2.522392821432304e-09	-2.044028851771787e-07	-1.181148660430947e-07	-2.568467287784032e-08	-1.375984503403602e-08	-2.558180146526143e-07	9.329813860750311e-09
1.03	-0.4545026683814994	-0.001069416416672391	0.5980624492133086	1.691373618776944	-0.3471962919455974	0.1299446458902445	-0.4363067346650746	1.496214496606546	1.49621449660655	0.06089809937661535	-0.1744840063191961	0.4331425522246531	0.2472256476364299	-0.1040365166634595	0.01084372547911892	0.09480629627317361	-0.1748663348379604	-0.007018474561710296	-0.1016022975920177	-0.001430135173797537	-0.3257564919293746	-0.3257564919293673	-0.03370354150949296	3.65372251200996e-05	-0.07496242142339482	-0.05606730760820403	-0.2373794139270149	0.08528130271227326	-0.01276212671903497	-0.2897622526245262	-0.01492764568125725	-0.01614500334410255	0.2074594264900848	-40.73209846255456	24.88561879739242	-16.51834749888062	2.642913262278559	-541.7351901282036	-28.15972436512993	-0.02384795689019137	1.413207890180423	0.2805043614237742	1.979601902714603	-6.560123599337134	-0.2046711413260134	-1.462468618529571	0.02856353866765305	-5.559347878319699	-5.55934787831676	-0.9161718477233245	0.01451588985244232	-0.8919765574258558	-0.8487469166899499	-2.705318807083329e-09	-2.426623185824355e-07	-1.429349156356992e-07	-3.342480972251122e-08	-1.761604531908672e-08	-2.990525909616637e-07	1.061134146556465e-08
1.04	-0.4554717592876107	-0.0009467938460224916	0.5991093858243317	1.689296577542153	-0.3472768828779469	0.1288546405645964	-0.4363197846844373	1.492678958849919	1.492678958849898	0.06051593242182163	-0.174483631061213	0.4323481556373522	0.2466222560143342	-0.08976064829790101	0.01369379893291456	0.1145641208772736	-0.2405290517821055	-0.009092136126890974	-0.1163849880868482	-0.001151586941208317	-0.3813345700913686	-0.3813345700913423	-0.04272345853626315	3.982060765309328e-05	-0.08392991495447333	-0.06459841436164496	-0.2378146804848331	0.08527320342395003	-0.01275991168019613	-0.2883787231871602	-0.01551661206124761	-0.01605138371621962	0.2077301621698721	-40.85339593409982	24.77896769822559	-16.40170615892304	2.535689211722368	-541.5439511727495	-28.08666292028077	-0.02387627586653661	1.450040404582677	0.2901236925315798	1.97322218523289	-6.582425281294054	-0.2150789880041155	-1.513988136741941	0.01795286034387286	-5.559670223299325	-5.559670223299428	-0.8755141294952714	-0.02835100300071519	-0.9023662429804001	-0.8657305887912601	-3.282285986191422e-09	-2.789946845161789e-07	-1.648102539790829e-07	-4.008026659927621e-08	-2.163283060868386e-08	-3.365192781688571e-07	1.129626633601539e-08
